<?xml version="1.0" standalone="no"?>
<!DOCTYPE svg PUBLIC "-//W3C//DTD SVG 20010904//EN"
 "http://www.w3.org/TR/2001/REC-SVG-20010904/DTD/svg10.dtd">
<svg version="1.0" xmlns="http://www.w3.org/2000/svg"
 width="1674.000000pt" height="1920.000000pt" viewBox="0 0 1674.000000 1920.000000"
 preserveAspectRatio="xMidYMid meet">

<g transform="translate(0.000000,1920.000000) scale(0.100000,-0.100000)"
fill="#000000" stroke="none">
<path d="M9550 17761 c0 -13 -36 -20 -200 -35 -80 -8 -158 -19 -174 -26 -16
-6 -54 -15 -85 -19 -93 -14 -348 -79 -367 -93 -6 -4 -35 -17 -65 -27 -135 -47
-178 -63 -239 -93 -36 -17 -72 -34 -80 -39 -8 -5 -35 -18 -59 -29 -25 -11 -59
-31 -75 -43 -17 -13 -51 -33 -76 -46 -49 -25 -106 -63 -220 -146 -41 -30 -95
-69 -119 -85 -98 -69 -342 -297 -440 -411 -208 -243 -353 -494 -434 -753 -62
-196 -68 -223 -78 -381 -4 -77 -11 -160 -14 -185 -8 -70 23 -426 44 -515 29
-119 69 -250 103 -337 35 -89 51 -97 95 -47 63 70 88 60 99 -39 3 -37 13 -87
20 -112 8 -25 14 -71 14 -103 0 -53 -2 -58 -26 -67 -14 -6 -48 -10 -75 -10
-62 0 -86 -12 -93 -48 -6 -25 19 -126 44 -177 21 -44 68 -187 101 -307 10 -37
23 -76 28 -87 6 -11 11 -29 11 -41 0 -24 47 -115 88 -170 14 -19 58 -65 97
-102 68 -64 80 -83 121 -190 33 -88 105 -238 115 -238 3 0 13 -17 22 -37 23
-52 52 -86 67 -81 8 2 5 13 -11 33 -31 39 -65 102 -74 140 -3 16 -12 36 -18
44 -22 26 -82 209 -72 219 3 4 25 5 48 3 119 -10 244 5 276 32 9 8 38 27 64
42 35 20 51 25 59 17 9 -9 7 -16 -5 -29 -9 -10 -21 -41 -27 -68 -6 -27 -18
-57 -26 -66 -8 -8 -15 -35 -16 -58 -1 -37 4 -47 42 -86 24 -25 50 -45 57 -45
18 0 17 39 -1 46 -8 3 -24 25 -37 49 -21 40 -22 45 -8 62 25 29 47 110 58 215
6 60 17 111 29 135 39 75 47 130 47 328 0 105 3 199 8 211 11 31 51 46 82 32
27 -12 115 -182 115 -223 0 -13 9 -47 20 -75 11 -28 20 -59 20 -69 0 -46 135
-215 235 -293 41 -32 195 -108 220 -108 11 0 51 -7 89 -17 60 -14 79 -15 155
-4 47 7 111 16 141 21 56 7 200 70 262 113 43 30 108 96 141 144 45 66 99 194
114 267 19 99 28 336 14 378 -20 56 -11 59 224 77 72 6 227 13 345 16 118 3
252 10 296 17 115 15 127 11 152 -59 11 -32 23 -78 27 -102 4 -24 13 -58 20
-75 7 -17 16 -68 20 -114 7 -81 19 -111 31 -75 29 85 63 148 136 255 138 202
308 306 464 282 57 -8 112 -59 145 -134 23 -52 24 -66 24 -245 0 -165 -2 -195
-17 -218 -10 -14 -18 -39 -18 -54 0 -22 7 -12 31 42 33 77 54 190 49 275 -6
126 -4 207 7 235 19 51 46 138 54 175 4 19 19 64 32 100 13 36 41 110 61 164
20 55 42 106 48 114 15 17 30 44 56 97 11 22 39 60 63 85 90 93 89 90 89 214
0 61 -7 152 -15 201 -8 50 -17 133 -20 185 -4 52 -11 109 -16 126 -5 17 -13
59 -18 95 -5 35 -23 116 -40 179 -17 63 -36 135 -42 160 -20 81 -49 171 -64
200 -8 16 -15 37 -15 46 0 31 -199 417 -258 500 -115 165 -209 266 -337 369
-128 102 -349 226 -431 241 -35 6 -94 30 -134 55 -8 5 -35 21 -60 35 -25 15
-56 34 -70 43 -76 52 -240 111 -377 137 -40 7 -85 20 -100 27 -16 8 -72 17
-125 21 -116 8 -202 23 -206 36 -5 13 -162 13 -162 1z m394 -2233 c3 -13 9
-43 15 -68 9 -45 64 -195 102 -280 42 -95 132 -261 174 -320 19 -27 35 -54 35
-59 0 -5 17 -31 38 -58 21 -26 52 -68 68 -93 35 -54 32 -50 89 -122 25 -31 45
-60 45 -65 0 -4 18 -32 41 -61 70 -93 97 -87 -411 -84 -342 2 -472 -1 -560
-12 -132 -16 -128 -18 -176 77 -31 61 -88 123 -133 147 -139 73 -137 72 -286
74 -123 1 -148 -2 -205 -22 -221 -79 -360 -173 -415 -282 -14 -27 -36 -56 -48
-65 -24 -16 -293 -40 -373 -33 -38 3 -39 4 -45 50 -9 61 -39 99 -118 152 -97
65 -123 75 -211 88 -102 14 -226 -2 -285 -38 -100 -60 -115 -58 -115 13 1 75
15 121 46 146 50 39 159 107 173 107 15 0 338 157 361 176 8 6 59 35 114 63
54 28 106 57 115 64 9 8 54 36 101 63 47 27 104 62 127 79 23 16 92 66 153
110 61 44 137 104 168 132 79 74 105 67 64 -16 -26 -51 -60 -122 -72 -151 -6
-14 -28 -52 -50 -85 -22 -33 -51 -81 -65 -107 -13 -26 -29 -49 -35 -53 -5 -3
-26 -32 -47 -63 -20 -31 -54 -76 -75 -99 -21 -24 -38 -46 -38 -51 0 -4 -15
-23 -34 -42 -57 -59 -107 -131 -104 -148 3 -14 16 -17 83 -16 135 2 337 25
398 45 31 10 64 19 73 19 9 0 38 10 63 21 57 27 110 51 181 80 30 13 74 36 98
52 23 15 57 35 75 43 17 7 48 24 68 36 107 68 199 131 239 163 25 20 66 53 92
73 161 127 315 274 411 395 43 53 83 64 91 25z m-864 -1222 c13 -17 12 -18
-177 -41 -135 -17 -271 -19 -292 -6 -11 7 -3 12 30 20 24 6 64 17 89 25 65 20
333 21 350 2z m-1390 -48 c31 -13 69 -34 85 -46 43 -34 21 -42 -115 -43 -107
0 -201 -7 -342 -25 -51 -6 -58 -5 -58 10 0 31 108 115 165 128 59 13 207 0
265 -24z m1782 -165 c23 -21 26 -92 3 -89 -18 3 -74 65 -75 83 0 25 46 29 72
6z m-144 -34 c70 -32 103 -65 129 -127 29 -72 47 -205 33 -252 -6 -19 -10 -45
-10 -58 0 -33 -56 -147 -103 -209 -39 -52 -58 -66 -171 -124 -62 -32 -214 -47
-317 -31 -85 13 -188 73 -266 154 -73 77 -155 238 -172 338 -6 36 -15 85 -20
110 -15 67 -14 170 2 175 29 9 106 12 118 4 11 -7 11 -14 -4 -38 -18 -31 -23
-106 -8 -130 8 -12 12 -10 20 10 5 13 12 36 15 50 3 15 24 45 47 68 31 31 49
41 74 41 17 0 34 -3 38 -6 3 -3 -11 -28 -33 -55 -33 -42 -39 -57 -45 -118 -4
-39 -4 -89 0 -111 13 -75 79 -159 151 -194 21 -10 52 -25 67 -32 97 -47 253
28 311 150 60 126 21 310 -76 362 -32 16 -37 40 -10 48 39 11 184 -4 230 -25z
m-1407 -66 c9 -10 29 -175 36 -299 4 -63 0 -123 -12 -190 -15 -86 -23 -108
-62 -166 -37 -56 -54 -71 -100 -93 -75 -34 -159 -34 -237 0 -68 30 -80 54 -90
180 -4 50 -14 100 -22 112 -8 12 -14 33 -14 46 0 13 -9 50 -21 83 -12 32 -22
84 -22 116 -2 48 3 62 30 100 l31 43 89 3 c50 1 103 -2 119 -8 29 -11 29 -12
9 -28 -68 -57 -89 -238 -39 -345 28 -62 87 -117 126 -117 13 0 40 11 60 25 29
20 40 37 54 82 18 61 21 190 5 206 -5 5 -22 0 -40 -14 -25 -19 -36 -21 -58
-13 -36 12 -50 52 -33 93 15 38 52 42 86 10 29 -28 47 -18 33 19 -12 32 -68
92 -85 92 -6 0 -17 7 -24 15 -7 8 -30 20 -51 25 -46 13 -50 27 -11 34 40 7
234 -2 243 -11z m1185 -6 c21 -20 25 -31 22 -67 -7 -104 -138 -103 -138 1 0
11 7 35 14 54 13 29 20 35 46 35 19 0 41 -9 56 -23z m-1823 -71 c15 -24 27
-54 27 -67 0 -13 7 -37 15 -52 8 -15 17 -45 21 -65 3 -20 12 -60 19 -89 8 -28
17 -89 20 -135 4 -46 14 -98 21 -117 17 -42 18 -41 -4 -41 -22 0 -62 35 -62
54 0 8 -7 19 -14 26 -8 6 -20 36 -26 66 -6 29 -15 56 -20 59 -5 3 -12 27 -16
53 -4 26 -12 58 -19 72 -7 14 -16 45 -20 70 -4 25 -14 54 -21 65 -17 24 -18
117 -2 133 24 24 52 13 81 -32z m107 36 c0 -15 -24 -32 -46 -32 -25 0 -39 14
-29 30 7 12 75 14 75 2z"/>
<path d="M1780 14089 c-52 -10 -142 -26 -200 -35 -147 -22 -147 -22 -154 -39
-3 -8 -1 -27 5 -42 5 -15 16 -76 24 -136 8 -59 17 -113 20 -118 3 -5 12 -62
20 -126 26 -221 36 -298 52 -367 8 -37 18 -100 23 -140 4 -39 14 -114 23 -166
9 -52 23 -151 32 -220 9 -69 25 -170 36 -224 20 -100 39 -229 64 -449 8 -64
16 -125 19 -135 4 -10 13 -63 20 -118 8 -54 21 -139 30 -189 31 -179 49 -302
56 -380 4 -44 12 -98 18 -120 6 -22 14 -69 17 -105 4 -36 11 -75 16 -88 5 -13
14 -67 19 -120 16 -144 83 -591 101 -672 6 -25 17 -99 24 -165 8 -66 19 -151
25 -190 6 -38 13 -85 16 -103 6 -38 37 -60 179 -130 50 -25 104 -56 120 -69
17 -14 66 -46 110 -72 69 -40 80 -50 77 -71 -11 -93 -20 -291 -21 -440 -1
-169 -2 -177 -26 -211 -56 -84 -51 -187 11 -219 16 -8 58 -32 93 -52 36 -21
71 -38 78 -38 7 0 31 -11 53 -25 67 -43 85 -36 126 48 60 123 166 272 307 434
27 30 57 74 67 98 15 35 24 44 47 47 22 2 34 14 54 51 31 58 105 136 137 144
27 7 72 -30 72 -59 0 -25 -101 -126 -140 -139 -17 -6 -45 -32 -65 -60 -20 -26
-56 -65 -79 -86 -99 -88 -255 -290 -321 -418 -17 -33 -37 -69 -45 -81 -17 -28
-6 -74 19 -74 11 0 53 -18 95 -39 42 -21 88 -42 102 -45 25 -7 139 5 239 25
28 5 120 14 205 19 85 6 200 15 255 20 144 15 386 40 485 50 194 20 426 52
434 60 14 13 1 34 -30 50 -16 8 -39 23 -51 33 -19 17 -34 19 -151 15 -99 -4
-129 -2 -128 8 2 16 26 44 38 44 5 0 32 17 61 38 29 20 78 51 110 67 32 17 74
44 93 62 l36 32 -7 68 c-3 37 -13 106 -20 153 -8 47 -16 121 -19 165 -3 44
-11 98 -19 120 -8 22 -17 85 -21 140 -4 55 -11 116 -16 135 -5 19 -14 89 -20
154 -6 66 -15 125 -21 132 -9 11 -20 90 -33 244 -3 30 -8 76 -12 103 -8 57 12
66 22 10 4 -21 15 -48 25 -61 10 -13 21 -49 25 -80 3 -31 11 -66 17 -77 6 -11
16 -45 23 -75 7 -30 17 -68 22 -85 6 -16 30 -91 53 -165 24 -74 48 -144 55
-155 7 -11 17 -38 23 -60 12 -46 68 -219 82 -254 8 -19 12 -21 24 -11 8 7 15
23 15 35 0 39 39 113 72 137 25 17 45 22 87 22 66 -1 81 -17 81 -85 0 -26 7
-83 15 -126 19 -101 19 -102 -9 -113 -29 -11 -142 13 -167 36 -10 9 -28 14
-41 12 -32 -4 -34 -37 -7 -104 18 -44 32 -61 65 -80 23 -14 49 -22 58 -18 28
11 64 -5 83 -36 12 -21 31 -34 58 -42 22 -6 44 -15 50 -20 16 -15 35 -8 44 15
4 12 5 68 1 125 -5 91 -8 104 -29 118 -16 12 -20 19 -12 27 6 6 11 34 11 62 0
43 4 56 28 78 32 30 61 34 124 13 24 -8 72 -16 107 -19 53 -4 69 -10 92 -34
24 -25 29 -40 39 -131 10 -84 10 -105 -1 -119 -21 -25 -73 -43 -123 -43 -37 0
-51 6 -76 30 -35 34 -55 37 -89 11 -55 -42 -13 -166 66 -191 21 -7 43 -16 48
-21 6 -4 33 -13 60 -20 28 -7 59 -18 70 -26 11 -7 32 -13 47 -13 40 0 72 -35
64 -68 -4 -15 -11 -61 -16 -102 -5 -41 -16 -101 -24 -133 -9 -32 -16 -81 -16
-110 -1 -29 -8 -97 -17 -152 -23 -143 -30 -742 -10 -782 8 -15 18 -55 22 -88
4 -34 15 -70 26 -84 10 -13 19 -29 19 -35 1 -21 45 -61 95 -86 28 -14 61 -33
74 -42 13 -10 33 -18 45 -18 11 0 35 -9 51 -20 17 -11 40 -20 53 -20 13 0 40
-8 60 -19 73 -37 107 -51 140 -57 18 -4 50 -15 70 -25 20 -11 48 -19 62 -19
14 0 34 -7 44 -15 11 -8 29 -15 40 -15 11 0 27 -7 36 -15 10 -9 31 -19 47 -24
58 -17 55 3 -10 70 -68 70 -111 130 -122 169 -3 14 -12 39 -20 55 -43 97 -44
103 -57 234 -15 153 -15 240 0 456 11 174 22 259 63 525 10 69 19 152 19 185
0 33 7 98 15 145 9 47 20 126 25 175 6 50 13 99 16 110 3 11 12 67 20 125 7
58 18 134 24 170 6 36 15 97 21 135 19 127 29 163 48 168 10 2 23 -4 29 -14
15 -23 15 -109 1 -146 -6 -15 -17 -80 -25 -143 -8 -63 -18 -128 -24 -145 -5
-16 -14 -82 -20 -145 -6 -63 -17 -137 -25 -164 -8 -27 -15 -68 -15 -90 -1 -23
-7 -68 -14 -102 -13 -62 -9 -91 15 -111 14 -10 100 -39 204 -68 28 -7 109 -32
180 -54 72 -23 150 -45 175 -50 25 -5 63 -16 85 -25 22 -8 51 -15 65 -16 14 0
43 -9 65 -20 22 -11 48 -19 58 -20 10 0 28 -6 40 -14 12 -8 44 -17 72 -21 27
-4 61 -13 75 -20 14 -7 44 -17 65 -21 22 -4 56 -15 75 -24 48 -24 95 -40 163
-55 32 -7 64 -18 70 -24 7 -5 33 -13 57 -16 25 -4 68 -15 95 -25 115 -41 182
-60 206 -60 15 0 46 -9 70 -20 24 -11 57 -20 73 -20 16 0 37 -6 45 -13 9 -8
45 -21 81 -31 64 -17 65 -17 82 4 22 27 24 103 4 151 -7 19 -16 74 -19 124 -5
63 -11 93 -22 101 -16 12 -23 50 -26 149 -2 41 -8 66 -21 81 -26 29 -37 76
-31 123 3 25 2 41 -5 41 -13 0 -23 57 -26 140 -1 46 -8 77 -24 107 -18 31 -23
58 -24 112 0 39 -4 71 -8 71 -12 0 -27 49 -40 125 -6 39 -16 84 -21 101 -5 17
-9 53 -9 80 -1 27 -8 67 -16 89 -9 22 -22 88 -29 147 -8 59 -18 115 -24 126
-13 24 -38 166 -55 307 -7 61 -17 119 -23 130 -6 11 -13 57 -17 102 -3 46 -11
95 -18 110 -22 57 -74 385 -63 403 3 5 -3 37 -15 71 -13 40 -20 89 -20 137 0
58 -5 82 -21 108 -15 25 -21 54 -23 111 -2 43 -11 98 -19 123 -12 34 -15 69
-11 138 3 69 1 92 -8 90 -16 -4 -27 68 -22 147 3 69 -2 95 -20 95 -9 0 -15 30
-19 108 -4 60 -9 115 -12 123 -12 30 -110 62 -225 74 -36 3 -90 12 -120 20
-30 7 -84 16 -120 20 -36 4 -81 11 -100 16 -20 5 -71 14 -115 20 -44 6 -88 15
-98 20 -9 6 -70 17 -135 25 -145 18 -437 70 -550 98 -31 8 -84 17 -117 20 -33
4 -94 13 -135 21 -41 8 -127 24 -190 35 -63 12 -136 28 -161 36 -25 8 -86 19
-135 25 -49 5 -114 16 -145 24 -31 8 -73 15 -92 15 -37 0 -99 13 -267 54 -52
13 -125 27 -163 30 -37 4 -78 11 -92 16 -14 5 -64 14 -112 20 -49 6 -104 15
-123 20 -109 29 -261 60 -291 60 -19 0 -62 7 -94 16 -33 8 -98 19 -145 24 -94
10 -201 39 -207 56 -4 11 97 57 148 68 15 3 37 14 50 25 21 17 22 22 11 46 -7
15 -19 84 -27 153 -14 130 -26 233 -46 382 -6 47 -17 132 -24 190 -18 146 -25
177 -42 192 -8 6 -54 18 -101 24 -48 7 -114 20 -147 28 -99 26 -327 75 -375
82 -25 4 -112 23 -195 44 -82 20 -206 48 -275 60 -69 13 -197 40 -285 61 -89
22 -171 39 -183 39 -12 0 -55 9 -94 20 -40 11 -86 20 -102 20 -16 0 -52 6 -80
14 -234 67 -291 73 -426 45z m1894 -5345 c39 -27 166 -93 178 -94 3 0 30 -16
59 -35 29 -19 65 -37 80 -40 15 -4 33 -13 40 -21 6 -8 17 -14 24 -14 7 0 37
-16 66 -36 30 -20 68 -41 86 -46 20 -5 37 -19 46 -38 20 -38 16 -39 -138 -40
-66 0 -149 -2 -185 -4 -158 -10 -568 -37 -595 -40 -16 -2 -40 0 -52 5 -21 8
-23 15 -23 84 0 59 4 78 18 90 46 41 142 118 181 148 24 17 62 49 85 69 49 45
78 47 130 12z"/>
<path d="M11248 13895 c-18 -6 -54 -27 -79 -46 -41 -30 -58 -50 -95 -111 -6
-10 -18 -26 -27 -35 -14 -16 -46 -96 -47 -115 0 -5 5 -8 10 -8 6 0 10 5 10 11
0 6 12 24 28 39 47 48 82 94 82 107 0 7 7 13 15 13 8 0 15 7 15 15 0 8 6 15
14 15 7 0 30 11 50 25 20 14 48 25 61 25 14 0 30 9 37 20 7 11 24 20 37 20 34
0 18 12 -34 26 -33 8 -53 8 -77 -1z"/>
<path d="M11505 13519 c-4 -6 -5 -13 -2 -16 7 -7 27 6 27 18 0 12 -17 12 -25
-2z"/>
<path d="M13810 13310 c0 -5 5 -10 10 -10 6 0 10 5 10 10 0 6 -4 10 -10 10 -5
0 -10 -4 -10 -10z"/>
<path d="M11219 13220 c-19 -21 -22 -30 -12 -30 18 0 73 38 73 51 0 19 -36 7
-61 -21z"/>
<path d="M11138 13173 c-27 -7 -22 -23 7 -23 16 0 25 6 25 15 0 15 -2 16 -32
8z"/>
<path d="M13300 13168 c-36 -4 -138 -11 -226 -17 -104 -6 -172 -14 -190 -24
-16 -8 -63 -17 -105 -20 -42 -3 -85 -10 -95 -15 -11 -5 -35 -17 -56 -25 -20
-9 -48 -31 -62 -49 -27 -37 -66 -146 -66 -190 0 -15 -5 -39 -11 -55 -6 -15
-15 -52 -19 -82 -18 -103 -57 -109 -156 -22 -37 32 -92 71 -122 87 -31 16 -64
37 -75 48 -10 10 -38 27 -61 37 -22 11 -48 24 -56 29 -108 64 -209 90 -360 95
-103 3 -114 2 -60 -5 161 -22 187 -27 217 -43 18 -9 42 -17 55 -17 13 0 50
-14 83 -32 33 -17 72 -37 86 -45 15 -7 32 -20 39 -28 7 -8 26 -15 42 -15 16 0
31 -6 34 -15 4 -9 27 -28 53 -42 25 -15 59 -40 75 -56 16 -16 47 -40 67 -53
21 -13 43 -32 49 -43 5 -11 20 -23 32 -26 13 -4 46 -28 73 -54 28 -26 68 -59
90 -74 22 -14 67 -56 100 -93 33 -36 87 -94 120 -128 75 -78 129 -143 179
-215 21 -31 50 -69 62 -84 13 -16 24 -33 24 -39 0 -6 6 -19 14 -27 8 -9 28
-44 46 -78 17 -34 35 -65 40 -68 6 -4 10 -13 10 -20 0 -14 35 -93 110 -250 21
-44 42 -96 45 -115 4 -19 13 -42 21 -50 13 -16 38 -95 55 -179 5 -24 14 -50
20 -58 7 -7 15 -30 20 -51 4 -20 22 -75 39 -122 17 -47 35 -103 40 -125 5 -22
16 -53 24 -70 9 -16 16 -36 16 -44 0 -8 16 -48 36 -89 19 -41 38 -89 41 -106
2 -17 13 -49 24 -71 10 -22 21 -57 24 -77 3 -21 10 -38 15 -38 6 0 10 -4 10
-9 0 -20 84 -184 106 -208 13 -14 24 -34 24 -43 0 -9 9 -25 20 -35 11 -10 20
-24 20 -31 0 -7 15 -32 33 -56 62 -82 89 -136 77 -157 -5 -11 -10 -29 -10 -40
0 -12 -11 -31 -25 -43 -14 -12 -25 -28 -25 -35 0 -7 -5 -12 -11 -10 -7 1 -16
-14 -21 -33 -10 -37 -23 -50 -49 -50 -21 0 -79 -50 -79 -67 0 -7 -6 -13 -12
-13 -7 0 -29 -16 -48 -35 -19 -19 -42 -35 -52 -35 -10 0 -27 -9 -38 -20 -11
-11 -24 -20 -28 -20 -5 0 -17 -9 -26 -19 -9 -10 -37 -22 -61 -26 -25 -3 -48
-12 -52 -18 -12 -18 -64 -45 -109 -56 -51 -13 -133 -41 -164 -57 -38 -19 -167
-29 -184 -15 -10 8 -16 9 -21 1 -10 -15 -55 -12 -61 5 -5 12 -30 15 -140 15
-108 0 -134 3 -134 14 0 22 -24 26 -151 26 -96 0 -121 3 -125 15 -5 12 -9 12
-29 -1 -24 -15 -50 -11 -59 11 -2 7 -18 16 -35 20 -35 7 -53 33 -49 67 5 35
17 48 45 48 15 0 33 10 45 26 15 19 28 25 45 21 16 -3 27 2 34 14 6 12 21 19
37 19 16 0 32 8 40 20 9 15 23 20 60 20 28 0 64 8 87 20 22 11 50 20 62 20 13
0 31 4 41 9 23 13 107 37 157 46 22 4 54 15 71 26 17 10 43 19 58 19 42 0 104
41 116 75 12 37 13 69 4 162 -9 95 -2 103 88 103 55 0 75 4 98 21 22 17 38 21
69 16 45 -6 56 0 40 19 -6 8 -9 20 -6 28 7 17 -38 58 -78 71 -21 7 -33 19 -40
43 -5 17 -15 33 -22 33 -22 2 -27 4 -43 14 -30 20 -54 57 -55 83 0 15 -2 25
-5 22 -3 -3 -20 10 -38 28 -33 34 -33 34 -37 149 -3 106 -11 147 -22 116 -3
-7 -13 -13 -23 -13 -34 0 -91 -31 -102 -55 -6 -14 -14 -25 -18 -25 -3 0 -5
-12 -4 -27 1 -16 2 -40 3 -54 1 -18 8 -28 21 -32 14 -4 20 -14 20 -36 0 -16
14 -54 31 -83 22 -37 34 -72 38 -114 4 -34 13 -70 21 -79 11 -13 15 -62 18
-199 l4 -183 -51 -26 c-28 -15 -59 -27 -70 -27 -10 0 -34 -6 -52 -14 -19 -8
-58 -17 -88 -21 -30 -4 -68 -16 -85 -26 -18 -11 -50 -19 -76 -19 -25 0 -56 -7
-68 -16 -14 -9 -54 -18 -100 -21 -42 -3 -86 -11 -97 -18 -11 -7 -56 -15 -100
-19 -44 -4 -89 -14 -101 -21 -11 -7 -56 -16 -100 -20 -43 -4 -84 -11 -90 -16
-6 -5 -60 -14 -120 -21 -60 -6 -112 -16 -116 -22 -4 -6 -7 -24 -7 -41 1 -61
-11 -117 -30 -141 -11 -14 -25 -40 -31 -59 -8 -23 -26 -43 -59 -64 -26 -17
-51 -31 -54 -31 -13 0 -28 43 -33 93 -4 44 -1 58 17 81 18 23 20 31 11 52 -8
16 -8 32 -1 50 5 15 7 29 5 32 -11 10 -89 2 -109 -11 -13 -8 -63 -17 -116 -20
-52 -4 -99 -11 -105 -16 -14 -11 -219 -31 -323 -31 -42 0 -73 -4 -73 -10 0
-11 22 -13 107 -10 59 2 64 -3 88 -95 13 -53 51 -105 76 -105 5 0 9 -15 9 -34
0 -25 -10 -44 -38 -75 -40 -43 -97 -70 -207 -96 -80 -19 -177 -48 -193 -58
-20 -13 3 -35 50 -48 103 -27 348 -138 348 -156 0 -9 -23 -13 -80 -13 -92 0
-100 -7 -119 -96 -5 -28 -24 -97 -41 -155 -51 -167 -68 -301 -42 -331 21 -26
199 -98 240 -98 21 0 35 -8 47 -27 39 -62 67 -82 149 -107 103 -31 304 -60
376 -54 176 15 377 68 418 111 27 28 27 31 32 189 6 188 9 194 81 161 80 -38
141 -63 154 -63 6 0 47 -17 91 -39 43 -21 90 -42 104 -46 14 -4 34 -14 45 -21
11 -8 25 -14 33 -14 13 0 103 -38 154 -66 14 -8 35 -14 46 -14 10 0 43 -13 73
-29 l54 -29 -4 -238 c-1 -132 -5 -242 -7 -245 -2 -4 -23 -9 -46 -13 -23 -4
-47 -11 -54 -17 -7 -5 -40 -14 -74 -20 -34 -5 -90 -23 -124 -39 -35 -17 -77
-30 -94 -30 -69 0 -127 -44 -116 -90 3 -14 8 -27 11 -30 2 -3 57 -7 121 -10
l117 -5 3 -113 3 -114 -47 -44 -47 -43 4 -333 4 -333 -67 -35 c-37 -19 -70
-38 -73 -41 -7 -7 -7 -998 -1 -1229 4 -144 6 -155 24 -158 24 -4 85 65 113
127 25 58 25 145 -1 211 -33 84 -28 104 50 221 38 57 101 146 138 197 38 51
90 126 117 166 27 41 58 80 70 86 17 9 68 9 211 1 104 -6 277 -15 384 -21 178
-10 197 -12 213 -31 24 -29 22 -33 -23 -75 l-40 -37 0 -83 c0 -75 3 -88 28
-123 39 -57 106 -86 196 -86 84 0 140 26 190 88 25 31 31 49 34 102 5 83 -7
113 -69 165 l-50 42 7 89 c7 97 2 112 -44 124 -15 4 -40 12 -57 20 -16 7 -113
34 -215 60 -102 27 -197 54 -213 62 -15 7 -46 18 -70 22 -44 9 -175 45 -292
81 -38 12 -90 25 -115 31 -72 15 -73 19 -66 219 3 96 11 232 17 302 6 70 8
139 5 153 -4 15 -21 32 -45 44 -21 11 -41 27 -45 36 -3 9 -3 75 1 146 8 159
16 175 95 182 102 9 412 75 548 117 348 107 523 187 602 276 48 55 82 139 95
239 19 148 15 161 -100 312 l-39 53 11 82 c7 46 19 117 28 158 9 45 18 166 23
300 7 215 9 229 39 320 25 76 33 118 37 210 4 74 11 123 20 137 12 19 15 84
16 349 l1 326 31 19 c47 27 77 73 75 112 -2 17 3 43 10 56 13 23 16 23 90 17
235 -19 375 -29 451 -29 80 -1 90 1 160 37 87 45 185 118 201 149 6 12 20 31
30 42 23 26 99 175 99 196 0 8 9 34 20 57 11 22 20 46 20 53 0 6 9 30 19 53
27 57 45 492 31 756 -5 102 -9 238 -10 303 0 82 -5 129 -15 154 -9 20 -20 78
-25 127 -6 50 -16 115 -24 145 -8 29 -18 90 -22 134 -4 44 -13 92 -20 106 -8
14 -14 49 -14 78 0 28 -9 75 -19 105 -11 29 -27 87 -36 128 -33 143 -51 162
-121 125 -16 -8 -38 -15 -50 -15 -11 0 -37 -16 -58 -35 -46 -42 -102 -48 -143
-15 -14 11 -37 20 -52 20 -14 0 -39 9 -56 20 -16 11 -40 20 -52 20 -13 0 -23
4 -23 8 0 14 -48 32 -82 32 -17 0 -39 7 -49 16 -9 8 -44 19 -77 24 -32 4 -68
13 -78 18 -37 20 -172 52 -245 58 -41 4 -89 13 -107 20 -19 8 -110 18 -218 24
-102 5 -189 12 -194 15 -14 9 -300 11 -370 3z m554 -2862 c68 -18 93 -31 106
-56 5 -10 10 -84 10 -163 0 -119 -3 -147 -16 -158 -13 -11 -20 -7 -50 25 -19
20 -34 44 -34 52 0 19 -57 141 -69 148 -5 4 -12 19 -16 35 -3 16 -13 35 -21
42 -14 12 -20 70 -7 82 10 11 37 8 97 -7z m102 -1027 c17 -54 7 -90 -37 -136
-17 -17 -37 -42 -43 -55 -6 -12 -20 -24 -31 -26 -11 -2 -28 -11 -37 -19 -23
-21 -267 -143 -285 -143 -8 0 -26 -9 -40 -20 -14 -11 -34 -20 -45 -20 -10 0
-36 -9 -58 -20 -22 -11 -50 -20 -62 -20 -13 0 -36 -7 -52 -15 -16 -8 -47 -18
-70 -21 -22 -3 -67 -14 -98 -25 -60 -19 -74 -18 -243 27 -98 25 -132 37 -145
48 -8 7 -27 16 -42 20 -16 3 -28 13 -28 21 0 16 18 21 90 29 106 11 144 17
154 25 6 4 46 11 89 15 43 3 90 12 105 20 15 7 51 16 81 20 30 4 66 13 82 21
15 8 52 16 83 17 31 2 56 7 56 11 0 10 65 38 95 40 12 1 39 17 60 35 26 22 49
32 70 32 36 0 112 38 162 81 17 15 42 30 55 34 13 4 40 23 61 42 21 19 43 33
49 31 6 -2 17 -24 24 -49z m151 -311 c-3 -7 -5 -2 -5 12 0 14 2 19 5 13 2 -7
2 -19 0 -25z m-2335 -125 c7 -8 39 -13 80 -13 56 0 71 -4 85 -20 10 -11 29
-20 43 -20 15 0 38 -14 59 -35 31 -32 33 -39 28 -81 -5 -45 -45 -104 -71 -104
-6 0 -24 -7 -39 -15 -15 -8 -45 -17 -65 -21 -20 -3 -59 -12 -86 -20 -69 -19
-398 -20 -458 0 -24 8 -63 17 -87 20 -24 4 -56 13 -70 20 -14 8 -37 18 -51 24
-35 13 -72 89 -58 116 35 68 152 136 235 136 27 0 58 7 69 15 38 26 359 24
386 -2z m-711 -413 c18 -10 19 -23 19 -220 l0 -210 -24 -15 c-36 -24 -143 -5
-173 30 -28 32 -28 49 -3 145 11 41 20 85 20 98 0 12 9 40 20 62 11 22 20 48
20 60 0 47 71 76 121 50z"/>
<path d="M11415 8730 c-79 -9 -221 -36 -235 -45 -6 -3 -10 -17 -10 -30 0 -31
62 -65 118 -65 22 0 63 -5 92 -10 68 -13 187 -15 363 -6 121 7 144 11 188 33
80 42 66 73 -41 93 -36 7 -76 17 -90 22 -33 13 -295 19 -385 8z m409 -80 c16
-16 -6 -30 -61 -36 -55 -7 -69 2 -58 37 6 19 12 21 58 16 28 -4 55 -11 61 -17z
m-486 -17 c-2 -10 -10 -18 -18 -18 -8 0 -16 8 -18 18 -2 12 3 17 18 17 15 0
20 -5 18 -17z"/>
<path d="M11038 13113 c7 -3 16 -2 19 1 4 3 -2 6 -13 5 -11 0 -14 -3 -6 -6z"/>
<path d="M10955 13080 c-4 -6 5 -10 19 -10 14 0 26 5 26 10 0 6 -9 10 -19 10
-11 0 -23 -4 -26 -10z"/>
<path d="M10528 12884 c-5 -4 -8 -21 -8 -38 0 -21 3 -27 11 -19 6 6 9 23 7 38
-2 15 -6 23 -10 19z"/>
<path d="M10481 12770 c-8 -14 -20 -29 -27 -33 -8 -4 -14 -18 -14 -31 0 -20
-73 -111 -128 -160 -6 -6 -38 -36 -70 -66 -53 -52 -116 -100 -129 -100 -3 0
-26 -17 -52 -38 -25 -22 -68 -52 -96 -67 -52 -30 -191 -118 -260 -165 -22 -15
-71 -45 -110 -65 -38 -21 -73 -42 -76 -47 -11 -18 -411 -218 -435 -218 -8 0
-26 -7 -39 -16 -58 -38 -334 -50 -442 -19 -76 21 -146 46 -168 57 -33 18 -48
26 -87 42 -20 9 -40 21 -43 26 -4 6 -11 8 -16 5 -17 -11 -9 -40 15 -58 38 -29
185 -93 266 -117 154 -45 369 -36 545 22 100 33 319 143 368 184 17 14 42 30
56 36 30 11 156 94 183 120 9 10 36 30 59 45 143 95 155 102 195 102 26 1 47
8 58 20 24 26 182 36 251 16 26 -8 82 -15 124 -15 69 1 74 2 57 15 -11 8 -35
15 -54 15 -25 0 -42 8 -63 31 -17 18 -35 29 -44 25 -8 -3 -27 1 -42 9 -15 8
-32 10 -37 6 -6 -5 -23 -11 -38 -13 -22 -4 -28 -1 -28 13 0 10 9 21 20 24 11
3 25 15 31 26 5 11 14 17 19 14 5 -3 14 3 20 14 15 30 61 76 71 74 5 -2 9 1 9
6 0 4 14 23 31 41 25 25 33 29 40 19 6 -10 9 -6 9 14 0 15 4 27 8 27 5 0 26
28 46 62 29 49 36 71 34 103 -3 40 -3 40 -17 15z"/>
<path d="M7710 12620 c0 -21 16 -44 23 -33 4 6 0 19 -8 29 -11 15 -14 16 -15
4z"/>
<path d="M8186 12525 c-9 -24 -7 -78 3 -94 6 -9 10 2 13 35 5 54 -4 89 -16 59z"/>
<path d="M7790 12502 c0 -5 7 -16 16 -23 14 -12 16 -11 13 5 -4 20 -29 35 -29
18z"/>
<path d="M7900 12370 c0 -5 7 -10 15 -10 8 0 15 5 15 10 0 6 -7 10 -15 10 -8
0 -15 -4 -15 -10z"/>
<path d="M8290 12355 c-14 -17 1 -22 95 -29 33 -3 80 -8 105 -12 40 -6 43 -5
31 9 -7 9 -29 19 -50 22 -20 3 -44 10 -53 16 -28 15 -114 11 -128 -6z"/>
<path d="M8020 12256 c0 -2 7 -9 15 -16 12 -10 15 -10 15 4 0 9 -7 16 -15 16
-8 0 -15 -2 -15 -4z"/>
<path d="M8060 12218 c0 -24 59 -108 75 -108 33 0 24 25 -24 73 -34 35 -51 46
-51 35z"/>
<path d="M9969 12113 c-22 -56 -14 -146 19 -217 17 -36 36 -66 41 -66 6 0 11
-8 11 -17 0 -10 20 -47 45 -82 25 -36 45 -71 45 -78 0 -7 4 -13 9 -13 5 0 24
-30 42 -67 18 -36 47 -89 66 -117 18 -28 33 -60 33 -72 0 -12 8 -32 18 -45 11
-13 22 -37 26 -53 4 -15 22 -51 41 -79 19 -29 35 -59 35 -68 0 -8 11 -26 24
-38 l25 -23 -5 23 c-7 30 -152 327 -164 334 -5 3 -11 20 -15 38 -9 41 -37 107
-46 107 -4 0 -19 26 -35 58 -15 31 -36 68 -46 82 -39 52 -91 136 -99 160 -4
14 -15 43 -23 65 -8 22 -15 72 -16 112 0 77 -13 101 -31 56z"/>
<path d="M8242 12009 c-12 -5 -22 -13 -22 -19 0 -5 -7 -10 -15 -10 -9 0 -37
-11 -63 -25 -26 -14 -52 -25 -58 -25 -7 0 -14 -6 -17 -14 -3 -8 -24 -17 -47
-21 -44 -7 -80 -34 -80 -60 0 -8 7 -15 16 -15 17 0 46 25 38 33 -3 2 9 3 25 1
22 -3 33 2 41 16 6 12 21 20 35 20 13 0 30 9 38 21 8 11 27 22 41 23 15 2 33
12 41 22 14 18 15 18 36 -6 14 -17 22 -21 26 -12 2 6 9 10 14 6 15 -9 10 13
-9 44 -14 24 -21 28 -40 21z"/>
<path d="M8282 11732 c-8 -17 -9 -28 -2 -30 5 -2 10 -12 10 -22 0 -10 7 -20
15 -24 12 -4 15 -27 15 -117 0 -62 3 -109 6 -106 4 3 15 -4 24 -16 15 -19 17
-29 8 -62 -13 -47 4 -146 29 -170 11 -11 14 -33 13 -78 -5 -103 -1 -159 10
-152 6 3 10 1 10 -4 0 -6 7 -11 15 -11 12 0 14 -14 8 -89 -6 -86 -5 -89 17
-96 30 -10 43 6 31 38 -6 15 -15 63 -21 108 -5 45 -14 87 -19 93 -5 6 -12 54
-16 106 -4 52 -13 105 -21 117 -8 12 -14 42 -14 65 0 24 -7 75 -16 113 -8 39
-19 88 -24 110 -5 22 -9 70 -10 106 0 45 -5 70 -14 78 -8 7 -18 26 -21 42 -8
36 -16 37 -33 1z"/>
<path d="M10302 11708 c-7 -7 -12 -19 -12 -27 1 -19 31 -107 47 -136 6 -11 20
-51 33 -90 12 -38 32 -93 46 -121 13 -28 24 -60 24 -70 0 -10 7 -28 15 -38 8
-11 15 -39 15 -62 0 -28 5 -46 15 -52 22 -12 48 -138 34 -163 -11 -22 -13 -23
-38 -7 -15 9 -24 7 -47 -9 -16 -11 -65 -37 -109 -58 -44 -20 -125 -59 -180
-85 -55 -27 -113 -52 -129 -56 -16 -4 -54 -20 -85 -35 -31 -16 -62 -29 -69
-29 -8 0 -26 -7 -40 -14 -38 -21 -233 -79 -382 -114 -277 -66 -448 -89 -540
-72 -76 13 -178 47 -201 67 -8 7 -21 13 -27 13 -6 0 -25 15 -42 34 -17 18 -48
42 -70 52 -32 16 -41 26 -50 62 -5 23 -13 42 -15 42 -12 0 -55 -33 -55 -41 0
-13 90 -102 118 -116 13 -7 30 -13 37 -13 8 0 27 -11 43 -25 17 -14 34 -25 39
-25 5 0 16 -9 26 -20 9 -11 25 -20 36 -20 10 0 24 -6 30 -14 13 -15 173 -56
220 -56 16 0 41 4 57 10 16 5 76 16 134 24 58 7 119 19 135 25 17 6 47 13 67
16 21 3 43 12 50 19 12 12 122 25 260 30 28 1 55 9 66 19 10 9 29 17 43 17 42
0 70 12 65 26 -4 10 5 14 32 15 47 1 77 12 77 30 0 10 10 13 32 11 24 -3 35 2
45 17 8 13 23 21 39 21 52 0 89 12 89 29 0 16 26 26 143 58 9 2 17 11 17 18 0
17 31 35 59 35 12 0 21 5 21 10 0 6 14 10 30 10 25 0 33 6 44 31 18 42 23 30
31 -74 4 -49 13 -94 20 -101 8 -8 15 -50 18 -110 3 -54 7 -99 9 -100 1 -2 13
-9 26 -15 13 -7 22 -19 20 -28 -4 -19 -79 -43 -109 -36 -11 3 -27 -1 -37 -10
-19 -17 -59 -25 -150 -31 -34 -2 -68 -9 -76 -15 -7 -6 -16 -8 -19 -4 -4 3 -13
0 -22 -7 -10 -9 -31 -10 -70 -5 -54 6 -55 6 -55 -18 0 -32 -17 -45 -70 -53
-25 -4 -56 -13 -70 -20 -14 -8 -47 -18 -75 -23 -49 -9 -49 -10 20 -6 81 4 212
28 270 49 22 8 53 15 69 16 15 0 65 9 110 19 44 11 97 22 116 24 19 3 62 12
95 21 82 22 112 15 125 -32 5 -20 10 -50 10 -67 1 -16 9 -48 20 -70 11 -22 19
-53 20 -68 0 -15 6 -43 14 -61 7 -18 17 -53 21 -77 12 -74 45 -149 80 -183 61
-59 67 -146 11 -160 -14 -3 -26 -11 -26 -17 0 -13 76 -4 95 10 5 4 39 14 75
21 36 7 79 21 96 31 17 11 43 19 57 19 14 0 29 4 32 10 3 5 24 14 45 20 43 12
49 27 26 68 -7 14 -11 43 -8 75 3 40 11 57 33 78 16 15 29 35 29 44 0 31 40
75 67 75 15 0 35 8 46 18 10 9 36 18 56 19 161 11 199 10 244 -4 26 -8 47 -19
47 -24 0 -5 6 -9 14 -9 7 0 24 -21 38 -47 27 -54 49 -64 75 -34 12 14 29 21
54 21 20 0 47 8 60 18 13 11 48 22 78 25 29 4 58 10 65 15 6 5 22 12 36 15 18
4 31 19 42 44 24 58 28 66 43 92 7 14 12 28 9 32 -2 4 -27 10 -56 14 -46 7
-54 5 -70 -15 -10 -12 -18 -34 -19 -49 -1 -26 -1 -26 -8 -2 -3 13 -16 30 -29
39 -19 13 -22 13 -28 -2 -9 -23 -29 -20 -57 8 -19 19 -33 23 -62 21 -29 -3
-42 1 -60 21 -12 13 -27 24 -33 24 -5 0 -10 6 -9 13 0 6 -1 40 -1 73 -2 50 -5
63 -20 66 -12 3 -18 16 -20 39 -1 18 -12 43 -22 54 -15 16 -19 29 -14 53 4 22
3 32 -6 32 -7 0 -11 15 -9 45 2 31 -2 50 -15 63 -9 11 -18 39 -20 62 -1 24 -9
48 -17 54 -8 6 -16 31 -18 56 -4 66 -34 90 -112 90 -47 0 -63 4 -76 20 -12 13
-30 20 -54 20 -21 0 -47 8 -61 19 -13 11 -36 23 -51 26 -14 4 -31 13 -38 21
-6 8 -29 14 -49 14 -47 0 -70 8 -70 24 0 22 -54 53 -102 58 -37 4 -53 13 -80
42 -18 20 -42 36 -54 36 -11 0 -29 9 -39 20 -10 11 -26 20 -37 20 -10 0 -26 8
-36 18 -43 42 -51 45 -68 31 -9 -7 -39 -13 -68 -13 -50 0 -53 1 -119 67 -37
37 -72 67 -78 67 -6 0 -7 4 -4 10 3 5 -4 12 -17 16 -27 7 -67 53 -82 97 -31
86 -57 112 -84 85z"/>
<path d="M8087 11621 c-5 -21 9 -41 29 -41 18 0 26 17 19 40 -8 25 -41 26 -48
1z"/>
<path d="M8170 11425 c-11 -13 -11 -19 3 -32 21 -21 49 -9 45 19 -4 28 -30 35
-48 13z"/>
<path d="M8163 11184 c-3 -8 1 -23 10 -31 13 -13 19 -14 31 -3 9 7 16 21 16
31 0 24 -48 26 -57 3z"/>
<path d="M12969 11103 c-10 -2 -19 -13 -22 -24 -10 -36 0 -102 17 -114 10 -8
18 -36 23 -79 5 -37 13 -66 18 -66 6 1 13 -9 16 -22 4 -13 5 28 3 90 -2 85 -7
116 -18 128 -22 22 -24 63 -4 75 13 8 -12 16 -33 12z"/>
<path d="M8164 10945 c-4 -9 -2 -21 4 -27 16 -16 47 -5 47 17 0 26 -42 34 -51
10z"/>
<path d="M8332 10758 c-7 -7 -12 -15 -12 -19 0 -16 31 -38 45 -33 20 8 19 50
-1 58 -20 8 -18 8 -32 -6z"/>
<path d="M8245 10549 c-8 -25 6 -42 31 -37 13 2 19 12 20 31 1 22 -3 27 -22
27 -14 0 -25 -8 -29 -21z"/>
<path d="M8493 10554 c-17 -18 -16 -31 3 -38 23 -9 24 -8 24 18 0 30 -11 38
-27 20z"/>
<path d="M8533 10484 c4 -7 0 -15 -9 -18 -13 -5 -15 -15 -11 -49 12 -89 20
-108 38 -90 16 16 7 139 -10 155 -9 8 -11 8 -8 2z"/>
<path d="M12808 10419 c-22 -12 -12 -39 14 -39 24 0 52 26 43 40 -8 13 -35 12
-57 -1z"/>
<path d="M8382 10332 c-14 -4 -17 -62 -3 -62 21 0 41 13 41 27 0 19 -22 41
-38 35z"/>
<path d="M8196 10323 c-12 -12 -6 -43 9 -43 8 0 15 9 15 19 0 21 -13 34 -24
24z"/>
<path d="M8555 10241 c-8 -46 2 -121 16 -121 5 0 9 -7 9 -15 0 -8 -4 -15 -10
-15 -14 0 -13 -33 2 -48 7 -7 17 -8 30 -1 21 12 23 25 4 44 -9 9 -11 26 -7 52
8 43 -10 135 -26 140 -6 2 -14 -14 -18 -36z"/>
<path d="M9077 10271 c-20 -4 -40 -10 -42 -13 -3 -3 56 -7 132 -10 163 -5 234
-27 315 -95 27 -24 53 -43 57 -43 11 0 41 -28 74 -69 40 -48 191 -175 246
-207 25 -15 55 -35 66 -44 11 -10 47 -32 80 -50 33 -18 80 -43 105 -57 122
-68 210 -113 222 -113 7 0 27 -8 43 -17 46 -27 216 -23 272 6 23 11 49 18 57
15 8 -3 32 0 52 6 70 23 12 28 -96 8 -151 -27 -306 -12 -360 37 -8 7 -60 37
-115 65 -55 29 -120 66 -144 82 -25 17 -54 34 -65 39 -23 11 -38 20 -106 63
-25 16 -47 32 -50 35 -3 4 -27 23 -55 43 -27 20 -61 48 -74 62 -14 14 -28 26
-32 26 -16 0 -68 59 -75 84 -4 17 -19 33 -40 44 -18 9 -70 37 -116 61 -82 43
-84 43 -198 47 -63 1 -132 -1 -153 -5z"/>
<path d="M8940 10220 c0 -13 40 -13 60 0 11 7 5 10 -22 10 -21 0 -38 -4 -38
-10z"/>
<path d="M8221 10211 c-19 -12 -4 -51 20 -51 16 0 20 6 17 27 -3 29 -16 37
-37 24z"/>
<path d="M8865 10189 c-4 -6 -5 -13 -2 -16 8 -7 47 7 47 18 0 13 -37 11 -45
-2z"/>
<path d="M9645 10190 c-27 -7 -25 -8 18 -9 26 0 47 4 47 9 0 11 -21 11 -65 0z"/>
<path d="M8772 10108 c-23 -29 -50 -63 -60 -76 -19 -25 -42 -50 -65 -69 -21
-17 -10 -51 22 -67 14 -8 43 -28 65 -45 52 -42 90 -41 157 5 30 20 70 53 90
74 30 31 49 41 112 56 74 17 79 17 134 0 70 -22 97 -40 174 -118 59 -61 69
-84 47 -106 -10 -10 -10 -15 2 -22 21 -13 120 -13 120 1 0 11 -137 157 -221
236 -25 24 -54 43 -63 43 -10 0 -26 5 -37 10 -10 6 -48 11 -83 11 -76 1 -154
-35 -228 -104 -25 -24 -64 -51 -87 -61 -35 -16 -45 -17 -71 -6 -46 19 -60 37
-60 76 0 35 37 136 52 142 5 2 14 9 21 15 7 7 21 17 32 23 26 15 31 34 8 34
-11 0 -37 -22 -61 -52z"/>
<path d="M8332 10091 c-23 -14 -10 -46 18 -46 20 0 25 5 25 25 0 26 -20 36
-43 21z"/>
<path d="M8413 9893 c-7 -2 -13 -16 -13 -29 0 -20 5 -24 30 -24 22 0 30 5 30
18 0 17 -18 43 -29 41 -4 0 -12 -3 -18 -6z"/>
<path d="M8605 9841 c-8 -25 1 -41 21 -41 18 0 18 34 0 49 -11 10 -16 8 -21
-8z"/>
<path d="M8607 9773 c-13 -12 -7 -40 13 -58 16 -14 20 -31 20 -78 0 -48 4 -63
21 -78 13 -12 19 -24 15 -37 -9 -26 17 -48 33 -29 11 14 2 59 -21 101 -5 11
-12 47 -15 80 -7 95 -10 106 -37 106 -12 0 -26 -3 -29 -7z"/>
<path d="M9600 9710 c0 -6 7 -10 15 -10 8 0 15 2 15 4 0 2 -7 6 -15 10 -8 3
-15 1 -15 -4z"/>
<path d="M9175 9669 c-4 -6 -4 -13 -1 -16 8 -8 36 5 36 17 0 13 -27 13 -35 -1z"/>
<path d="M9685 9670 c-3 -5 -1 -10 4 -10 6 0 11 5 11 10 0 6 -2 10 -4 10 -3 0
-8 -4 -11 -10z"/>
<path d="M8310 9645 c-10 -12 -10 -18 0 -30 18 -22 30 -18 30 9 0 31 -14 40
-30 21z"/>
<path d="M8455 9646 c-16 -12 -17 -16 -6 -30 7 -9 22 -16 33 -16 15 0 19 6 16
27 -4 32 -17 38 -43 19z"/>
<path d="M9135 9630 c-3 -5 1 -10 9 -10 9 0 16 5 16 10 0 6 -4 10 -9 10 -6 0
-13 -4 -16 -10z"/>
<path d="M9060 9550 c0 -5 5 -10 10 -10 6 0 10 5 10 10 0 6 -4 10 -10 10 -5 0
-10 -4 -10 -10z"/>
<path d="M9017 9497 c-10 -26 -109 -37 -202 -22 -31 4 -48 1 -72 -14 -40 -25
-42 -43 -5 -62 15 -8 30 -18 35 -24 4 -6 10 -5 15 3 5 7 24 12 44 10 20 -1 43
4 52 11 23 20 28 9 21 -43 -5 -30 -13 -47 -25 -51 -26 -8 -47 4 -54 31 -7 27
-13 28 -50 14 -19 -7 -26 -17 -26 -37 0 -23 7 -31 40 -46 22 -9 50 -17 63 -17
15 -1 31 -15 52 -48 48 -77 76 -102 113 -102 18 0 42 -5 54 -11 17 -9 19 -17
13 -55 -8 -57 5 -79 61 -98 52 -17 78 -10 89 25 20 62 127 176 171 181 15 2
29 9 32 16 6 20 -52 14 -78 -8 -13 -11 -26 -20 -29 -20 -3 0 -26 -19 -51 -41
-45 -41 -120 -93 -124 -87 -2 2 -11 35 -21 75 -17 65 -17 74 -4 90 9 10 27 38
42 63 14 25 38 57 54 72 93 88 123 119 123 127 0 17 34 22 42 6 13 -23 98 -20
148 6 22 12 40 24 40 29 0 13 -145 21 -174 10 -15 -5 -38 -7 -51 -4 -12 3 -36
-1 -53 -10 -46 -24 -161 -155 -174 -200 -8 -25 -23 -46 -45 -60 -18 -11 -33
-27 -33 -33 0 -8 -13 -13 -32 -13 -25 0 -29 3 -18 10 11 7 11 10 2 10 -20 0
-42 64 -42 124 0 50 16 97 61 179 6 11 8 21 6 23 -3 3 -7 -2 -10 -9z"/>
<path d="M8484 9405 c-9 -23 3 -45 25 -45 10 0 21 7 25 15 8 23 -4 45 -25 45
-11 0 -22 -7 -25 -15z"/>
<path d="M8567 9213 c-13 -12 -7 -41 10 -47 21 -8 48 17 40 38 -6 16 -38 22
-50 9z"/>
<path d="M8731 9211 c-17 -11 -5 -51 15 -51 15 0 19 27 6 47 -4 7 -13 9 -21 4z"/>
<path d="M9488 9199 c-20 -11 -24 -29 -6 -29 6 0 19 -7 28 -15 16 -14 22 -13
63 7 64 32 61 48 -10 48 -32 0 -66 -5 -75 -11z"/>
<path d="M10635 9200 c-8 -13 15 -13 35 0 12 8 11 10 -7 10 -12 0 -25 -4 -28
-10z"/>
<path d="M8405 9090 c-11 -18 32 -57 46 -43 6 6 9 19 7 29 -4 22 -42 31 -53
14z"/>
<path d="M9440 9092 c-29 -13 -62 -47 -75 -79 -7 -17 -32 -49 -54 -71 -52 -50
-55 -89 -11 -134 23 -23 36 -29 53 -23 12 3 42 11 67 16 31 6 51 18 65 36 21
30 23 31 102 96 100 82 144 110 185 117 48 9 101 3 138 -17 28 -14 130 -18
130 -4 0 11 -36 21 -81 21 -23 0 -42 7 -54 20 -15 16 -31 20 -85 20 -52 0 -73
-5 -93 -20 -14 -11 -33 -20 -42 -20 -23 0 -79 -34 -131 -79 -76 -66 -131 -94
-168 -87 l-34 7 19 51 c10 29 36 70 59 93 50 51 54 77 10 57z"/>
<path d="M10378 9073 c6 -2 18 -2 25 0 6 3 1 5 -13 5 -14 0 -19 -2 -12 -5z"/>
<path d="M8756 9043 c-6 -21 7 -150 16 -159 4 -3 12 -3 19 1 20 13 1 175 -21
175 -5 0 -11 -8 -14 -17z"/>
<path d="M10167 9038 c-7 -4 14 -8 46 -8 34 0 56 4 52 9 -6 11 -80 10 -98 -1z"/>
<path d="M1291 8788 c1 -123 5 -232 9 -243 5 -12 54 -44 119 -79 61 -33 128
-74 148 -91 l37 -31 12 -235 c7 -129 18 -346 24 -484 16 -376 28 -563 39 -630
5 -33 13 -170 16 -305 4 -135 11 -294 16 -355 5 -60 13 -225 19 -365 5 -140
14 -322 20 -405 5 -82 15 -265 20 -405 6 -140 15 -280 20 -310 5 -30 12 -98
15 -150 10 -167 13 -179 48 -201 48 -29 314 -159 326 -159 8 0 11 316 11 1041
0 698 3 1047 10 1060 15 27 38 24 100 -17 30 -19 85 -50 121 -69 37 -18 88
-49 113 -69 26 -20 56 -36 66 -36 9 0 23 -7 30 -15 7 -8 27 -15 44 -15 17 0
42 -6 56 -13 36 -19 158 -86 202 -111 21 -12 97 -57 170 -101 73 -44 144 -85
158 -91 15 -7 45 -23 68 -38 23 -15 73 -43 110 -63 37 -20 96 -55 132 -78 36
-23 97 -59 135 -80 39 -21 72 -42 73 -47 2 -4 8 -8 14 -8 6 0 67 -33 136 -72
68 -40 148 -86 176 -101 28 -16 67 -39 86 -51 66 -43 228 -136 237 -136 4 0
40 -21 78 -47 39 -25 102 -63 140 -83 39 -20 89 -48 113 -63 23 -15 73 -44
110 -63 37 -20 74 -42 82 -49 8 -6 45 -28 81 -47 82 -44 99 -55 163 -95 28
-18 54 -33 58 -33 5 0 43 -21 86 -47 42 -26 106 -63 142 -83 36 -21 109 -62
164 -93 54 -32 102 -57 107 -57 4 0 12 -6 16 -13 4 -8 31 -25 58 -38 28 -13
86 -46 130 -73 44 -27 96 -59 116 -70 21 -12 72 -41 115 -66 44 -25 90 -49
104 -54 14 -5 41 -21 60 -36 19 -15 71 -46 115 -69 74 -38 157 -92 196 -127
14 -13 18 -54 24 -292 3 -152 11 -304 16 -337 5 -33 13 -169 19 -303 9 -242
14 -316 49 -885 16 -264 20 -301 38 -325 11 -14 66 -50 124 -79 57 -30 160
-83 228 -118 94 -49 127 -62 134 -52 4 7 6 374 3 837 -7 1161 -8 2695 -1 2885
8 207 8 205 -56 205 -36 0 -58 -6 -76 -20 -18 -14 -41 -20 -75 -20 l-49 0 2
193 c1 140 6 199 16 219 13 27 12 28 -28 54 -23 14 -89 52 -147 83 -57 31
-119 65 -138 76 -19 11 -76 42 -127 69 -50 27 -122 66 -159 87 -36 22 -71 39
-76 39 -5 0 -35 18 -67 41 -31 22 -80 52 -109 66 -28 14 -66 33 -84 42 -18 9
-40 24 -49 34 -9 9 -24 17 -33 17 -10 0 -29 9 -43 20 -14 11 -32 20 -39 20 -8
0 -39 18 -68 40 -29 22 -62 40 -71 40 -10 0 -20 4 -23 8 -3 5 -39 26 -80 46
-41 21 -80 44 -87 52 -6 8 -19 14 -29 14 -9 0 -28 9 -42 19 -13 11 -62 38
-108 61 -47 23 -98 49 -115 57 -207 108 -281 148 -313 169 -20 14 -73 42 -117
64 -44 21 -87 45 -94 54 -7 9 -19 16 -26 16 -7 0 -18 6 -24 13 -6 8 -42 26
-81 42 -38 15 -70 32 -70 36 0 4 -35 25 -77 47 -43 21 -133 69 -201 105 -68
37 -127 67 -131 67 -5 0 -19 9 -33 19 -14 11 -65 41 -114 67 -49 26 -105 57
-124 69 -20 13 -69 39 -110 59 -41 20 -102 53 -135 72 -33 20 -98 59 -145 87
l-85 51 -185 7 c-256 9 -341 39 -409 142 -26 38 -33 59 -35 110 -1 35 -7 70
-12 79 -5 9 -76 50 -157 92 -82 42 -180 97 -219 122 -39 26 -87 51 -106 56
-20 6 -55 25 -78 44 -22 19 -48 34 -56 34 -8 0 -27 9 -41 20 -14 11 -34 20
-45 20 -10 0 -27 9 -37 20 -10 11 -22 20 -28 20 -5 0 -21 8 -35 19 -15 10 -38
22 -52 26 -14 4 -32 13 -40 20 -8 8 -28 17 -43 21 -16 3 -31 13 -34 20 -3 8
-11 14 -18 14 -6 0 -20 9 -30 20 -10 11 -25 20 -34 20 -9 0 -29 9 -46 20 -16
11 -40 20 -52 20 -12 0 -35 11 -51 25 -16 13 -74 48 -128 76 -54 29 -110 60
-123 71 -13 10 -34 18 -48 18 l-23 0 1 -222z"/>
<path d="M8562 8963 c3 -32 44 -46 54 -19 8 21 -13 46 -38 46 -15 0 -19 -6
-16 -27z"/>
<path d="M8731 8974 c0 -11 3 -14 6 -6 3 7 2 16 -1 19 -3 4 -6 -2 -5 -13z"/>
<path d="M8807 8863 c-13 -12 -7 -53 7 -53 20 0 29 16 21 40 -6 20 -17 25 -28
13z"/>
<path d="M8807 8783 c-13 -24 -15 -62 -3 -78 18 -25 36 -10 36 29 0 32 -23 66
-33 49z"/>
<path d="M8613 8743 c-20 -7 -15 -41 6 -52 25 -14 50 13 35 37 -12 18 -24 23
-41 15z"/>
<path d="M8847 8543 c-3 -4 -7 -24 -9 -43 -2 -30 0 -35 20 -38 19 -3 22 1 22
31 0 33 -23 67 -33 50z"/>
<path d="M8644 8495 c-9 -23 3 -45 25 -45 21 0 30 16 23 43 -5 21 -40 23 -48
2z"/>
<path d="M10218 8444 c-15 -8 -49 -17 -75 -21 -26 -3 -60 -14 -75 -24 -14 -11
-35 -19 -46 -19 -12 0 -23 -4 -27 -9 -3 -5 -31 -15 -63 -21 -31 -6 -70 -17
-87 -24 -40 -18 -120 -38 -172 -44 -24 -2 -43 -6 -43 -8 0 -9 35 -44 45 -44 6
0 29 -9 50 -20 43 -22 129 -29 161 -12 23 11 79 31 119 42 17 4 65 24 108 44
43 20 88 36 99 36 34 0 85 45 90 79 9 58 -26 77 -84 45z"/>
<path d="M8840 8410 c-9 -17 -7 -22 15 -32 34 -15 52 1 33 31 -16 26 -34 27
-48 1z"/>
<path d="M8698 8229 c-24 -13 -23 -45 1 -52 27 -7 43 7 39 33 -4 27 -16 33
-40 19z"/>
<path d="M8916 8147 c-16 -11 -17 -17 -7 -36 14 -24 29 -24 45 2 17 26 -13 52
-38 34z"/>
<path d="M2903 8133 c-16 -6 -16 -17 -3 -65 8 -28 23 -45 68 -74 50 -34 71
-41 165 -55 82 -12 109 -13 117 -4 17 21 -11 42 -131 99 -64 31 -133 67 -153
81 -38 26 -42 27 -63 18z"/>
<path d="M8910 8037 c0 -18 6 -42 14 -52 14 -19 15 -19 26 5 14 31 -1 80 -25
80 -10 0 -15 -10 -15 -33z"/>
<path d="M8755 7830 c-9 -14 4 -50 18 -50 20 1 47 26 47 44 0 18 -54 23 -65 6z"/>
<path d="M10447 7719 c-43 -42 -14 -70 31 -30 24 20 30 62 10 60 -7 -1 -26
-14 -41 -30z"/>
<path d="M10554 7739 c-8 -14 11 -33 25 -25 6 4 11 14 11 22 0 16 -26 19 -36
3z"/>
<path d="M10266 7691 c-8 -13 21 -34 39 -27 25 9 18 36 -9 36 -14 0 -27 -4
-30 -9z"/>
<path d="M10361 7670 c-14 -8 -8 -40 7 -40 5 0 15 6 21 14 15 17 -8 39 -28 26z"/>
<path d="M10200 7615 c-5 -14 -20 -29 -32 -34 -20 -8 -21 -10 -6 -16 20 -8 78
29 78 50 0 26 -30 26 -40 0z"/>
<path d="M10081 7577 c-5 -13 -20 -27 -33 -30 -17 -5 -20 -9 -11 -18 16 -16
78 20 78 46 0 28 -24 30 -34 2z"/>
<path d="M9963 7553 c-16 -6 -17 -39 -3 -48 13 -8 40 13 40 30 0 15 -19 24
-37 18z"/>
<path d="M9782 7487 c-27 -28 -29 -57 -4 -57 22 1 56 46 48 66 -8 20 -19 18
-44 -9z"/>
<path d="M9880 7492 c0 -26 11 -34 27 -21 20 17 16 39 -7 39 -13 0 -20 -7 -20
-18z"/>
<path d="M10339 7479 c-19 -19 -20 -22 -4 -39 9 -10 15 -27 13 -37 -5 -23 -45
-20 -73 7 -23 22 -65 26 -95 10 -12 -7 -20 -26 -25 -62 -10 -88 -16 -106 -32
-112 -9 -4 -21 -1 -27 5 -8 8 -8 13 2 16 13 5 17 33 4 33 -5 0 -23 -7 -41 -16
-25 -12 -35 -13 -46 -4 -23 19 17 70 55 70 34 0 45 13 26 29 -17 14 -65 4 -73
-15 -3 -8 -14 -14 -24 -14 -20 0 -53 -28 -61 -51 -4 -11 -8 -12 -20 -2 -19 17
-112 2 -138 -22 -13 -11 -19 -29 -18 -49 1 -17 -2 -38 -6 -47 -5 -12 -1 -18
13 -22 33 -8 27 -39 -6 -35 -22 2 -29 9 -31 29 -2 14 -18 40 -35 57 -30 29
-35 31 -69 22 -33 -10 -36 -14 -43 -58 -3 -26 -6 -66 -6 -88 0 -45 -12 -54
-69 -54 -15 0 -31 -5 -37 -11 -6 -6 -25 -13 -43 -15 -17 -3 -52 -16 -77 -30
-25 -13 -53 -24 -62 -24 -9 0 -29 -9 -46 -20 -16 -11 -39 -20 -50 -20 -11 0
-30 -7 -42 -15 -11 -8 -38 -17 -59 -21 -34 -5 -54 2 -164 58 -69 36 -134 69
-145 76 -11 6 -54 27 -95 46 -41 19 -95 46 -120 60 -107 58 -560 276 -574 276
-8 0 -19 6 -23 13 -11 16 -92 56 -122 59 -44 5 -31 -17 25 -42 31 -14 66 -30
78 -37 11 -6 35 -18 52 -26 17 -8 49 -26 71 -40 23 -15 63 -32 88 -38 26 -7
49 -17 52 -24 2 -7 20 -16 39 -19 19 -4 34 -11 34 -16 0 -13 90 -60 116 -60
13 0 32 -8 42 -17 9 -10 47 -33 84 -51 37 -18 70 -37 73 -42 3 -4 23 -11 45
-15 22 -4 40 -10 40 -15 0 -10 181 -100 202 -100 9 0 23 -6 30 -13 7 -7 39
-28 71 -46 l57 -32 0 -90 c0 -101 8 -112 64 -90 17 7 51 19 76 26 82 25 163
55 174 65 7 5 50 21 96 36 47 14 146 50 220 78 163 63 223 84 275 97 21 6 44
14 50 18 5 5 28 14 50 21 22 7 49 19 60 25 11 7 38 16 60 20 22 4 51 13 65 20
37 19 254 100 340 126 41 13 82 29 91 36 8 7 23 13 31 13 18 0 117 49 119 59
6 34 8 90 4 108 -5 22 -81 73 -110 73 -15 0 -67 -23 -115 -51 -62 -37 -85 -34
-95 10 -6 28 -35 45 -35 21 0 -5 -10 -14 -21 -21 -30 -16 -59 12 -42 40 7 10
9 22 6 25 -13 13 -54 5 -74 -15z m111 -110 c0 -5 -9 -9 -20 -9 -19 0 -26 11
-14 23 8 8 34 -3 34 -14z m-212 -41 c17 -17 15 -45 -5 -52 -23 -9 -44 14 -37
42 7 24 24 28 42 10z m87 2 c-3 -5 -13 -10 -21 -10 -8 0 -12 5 -9 10 3 6 13
10 21 10 8 0 12 -4 9 -10z m-339 -100 c13 -5 24 -14 24 -19 0 -13 -67 -32 -86
-24 -17 6 -18 17 -2 59 11 32 12 32 26 13 8 -11 25 -24 38 -29z m-96 -59 c0
-5 -9 -7 -20 -4 -11 3 -20 7 -20 9 0 2 9 4 20 4 11 0 20 -4 20 -9z m-190 -76
c0 -15 -42 -27 -64 -19 -21 8 -20 13 6 41 20 21 23 22 40 6 10 -9 18 -22 18
-28z"/>
<path d="M9562 7458 c-8 -8 -9 -15 -1 -25 15 -17 35 -17 43 2 7 20 -27 38 -42
23z"/>
<path d="M9680 7425 c-10 -12 -9 -16 3 -21 17 -6 37 2 37 16 0 15 -29 19 -40
5z"/>
<path d="M9573 7393 c-21 -7 -15 -33 7 -33 11 0 20 6 20 14 0 18 -11 25 -27
19z"/>
<path d="M9401 7346 c-22 -26 18 -74 41 -50 9 8 -6 57 -19 61 -5 2 -15 -3 -22
-11z"/>
<path d="M9490 7341 c0 -12 6 -21 16 -21 9 0 14 7 12 17 -5 25 -28 28 -28 4z"/>
<path d="M9326 7313 c-3 -4 -6 -15 -6 -25 0 -24 33 -21 38 3 3 17 -21 33 -32
22z"/>
<path d="M9164 7256 c-3 -13 -14 -26 -25 -29 -24 -6 -25 -27 -1 -27 25 1 62
35 62 59 0 29 -28 27 -36 -3z"/>
<path d="M9250 7260 c0 -15 5 -20 18 -18 9 2 17 10 17 18 0 8 -8 16 -17 18
-13 2 -18 -3 -18 -18z"/>
<path d="M8902 7211 c2 -7 7 -12 11 -12 12 1 9 15 -3 20 -7 2 -11 -2 -8 -8z"/>
<path d="M8964 7185 c-7 -18 3 -35 22 -35 8 0 14 10 14 25 0 27 -27 35 -36 10z"/>
<path d="M9054 7189 c-10 -17 13 -36 27 -22 12 12 4 33 -11 33 -5 0 -12 -5
-16 -11z"/>
<path d="M9473 7169 c-7 -7 -29 -15 -50 -18 l-38 -7 3 -49 c5 -58 15 -75 48
-75 19 0 28 9 39 38 15 37 65 78 79 65 3 -3 6 1 6 10 0 18 -37 47 -60 47 -9 0
-21 -5 -27 -11z"/>
<path d="M8900 7134 c0 -9 5 -14 12 -12 18 6 21 28 4 28 -9 0 -16 -7 -16 -16z"/>
<path d="M12341 6934 c0 -11 3 -14 6 -6 3 7 2 16 -1 19 -3 4 -6 -2 -5 -13z"/>
<path d="M11930 5180 c-14 -5 -59 -18 -100 -30 -41 -13 -92 -31 -112 -41 -21
-11 -46 -19 -58 -19 -11 0 -42 -10 -70 -22 l-49 -22 4 -70 c23 -328 36 -496
41 -524 3 -18 11 -117 19 -220 8 -103 19 -248 25 -322 6 -74 15 -173 21 -220
6 -47 14 -163 19 -258 9 -198 11 -204 91 -246 30 -16 88 -46 129 -68 125 -65
115 -104 112 407 -4 869 -15 1620 -23 1643 -9 24 -11 24 -49 12z"/>
<path d="M11025 4874 c-27 -13 -59 -24 -69 -24 -11 0 -38 -9 -60 -19 -23 -10
-58 -22 -78 -25 -20 -4 -38 -11 -40 -17 -2 -6 -26 -12 -53 -14 -28 -2 -72 -11
-100 -21 -27 -9 -62 -21 -77 -26 -19 -7 -28 -19 -32 -43 -4 -18 -21 -52 -39
-76 -17 -24 -47 -67 -67 -96 -47 -69 -167 -209 -221 -258 -92 -83 -171 -150
-187 -159 -9 -6 -44 -30 -77 -54 -178 -130 -122 -246 124 -259 199 -10 504 84
671 207 103 76 127 98 171 164 48 72 59 78 137 81 40 1 62 8 94 31 49 34 61
67 53 144 -3 30 -1 111 4 180 13 172 5 220 -44 270 -22 22 -44 40 -50 39 -5 0
-32 -11 -60 -25z"/>
</g>
</svg>
